<?xml version="1.0" encoding="iso-8859-1"?>
<!-- Generator: Adobe Illustrator 19.0.0, SVG Export Plug-In . SVG Version: 6.00 Build 0)  -->
<svg version="1.1" id="Layer_1" xmlns="http://www.w3.org/2000/svg" xmlns:xlink="http://www.w3.org/1999/xlink" x="0px" y="0px"
	 viewBox="0 0 512 512" style="enable-background:new 0 0 512 512;" xml:space="preserve">
<path style="fill:#F9DEC5;" d="M103.453,475.942l35.419-32.353c4.599-4.201,10.588-6.554,16.818-6.608l121.048-1.03
	c12.049-0.103,23.658-4.542,32.702-12.506l89.97-79.236c8.693-7.655,9.505-20.918,1.813-29.577l0,0
	c-7.33-8.253-19.813-9.384-28.508-2.587l-70.593,55.185c-5.473,4.279-12.235,6.573-19.183,6.508l-78.154-0.729
	c-8.483-0.08-15.477-6.673-16.053-15.137l0,0c-0.641-9.401,6.825-17.372,16.247-17.346l68.041,0.179
	c9.12,0.024,16.732-6.951,17.504-16.037l0,0c0.846-9.953-6.787-18.599-16.768-18.992l-108.589-4.28
	c-4.078-0.16-8.137,0.048-12.13,0.612c-17.558,2.477-32.454,14.169-39.529,30.429l0,0c-8.052,18.509-20.185,34.958-35.492,48.118
	L56.815,398.78"/>
<path style="fill:#F2F2F2;" d="M430.936,276.687c0-96.615-78.321-174.936-174.936-174.936S81.064,180.073,81.064,276.687"/>
<path style="fill:#E6E6E6;" d="M287.513,104.589c-10.223-1.86-20.753-2.837-31.513-2.837c-96.615,0-174.936,78.321-174.936,174.936
	h63.025C144.089,190.833,205.941,119.428,287.513,104.589z"/>
<circle style="fill:#F2F2F2;" cx="256" cy="56.421" r="20.323"/>
<path d="M367.538,305.402l-70.593,55.185c-3.959,3.094-8.902,4.779-13.929,4.726l-78.154-0.729
	c-4.068-0.038-7.472-3.247-7.749-7.306c-0.149-2.195,0.596-4.288,2.101-5.893c1.499-1.601,3.53-2.48,5.721-2.48
	c0.007,0,0.015,0,0.021,0l68.041,0.18c0.022,0,0.045,0,0.068,0c13.359,0,24.699-10.41,25.832-23.728
	c0.606-7.122-1.666-13.995-6.397-19.354c-4.731-5.359-11.271-8.464-18.413-8.745l-108.589-4.28
	c-4.548-0.18-9.134,0.052-13.634,0.687c-20.148,2.841-37.798,16.405-46.061,35.397c-7.502,17.244-19.004,32.839-33.264,45.097
	l-21.199,18.226c-3.519,3.025-3.919,8.331-0.893,11.85c1.661,1.933,4.012,2.924,6.375,2.924c1.939,0,3.889-0.668,5.474-2.031
	l21.198-18.226c16.17-13.901,29.212-31.584,37.719-51.137c5.949-13.674,18.592-23.43,32.998-25.462
	c3.507-0.494,7.081-0.676,10.624-0.536l108.589,4.28c2.513,0.099,4.813,1.191,6.477,3.076c1.664,1.884,2.464,4.302,2.25,6.808
	c-0.398,4.685-4.387,8.347-9.086,8.347c-0.008,0-0.016,0-0.024,0l-68.041-0.18c-0.021,0-0.043,0-0.064,0
	c-6.792,0-13.344,2.84-17.988,7.798c-4.658,4.973-7.064,11.726-6.601,18.524c0.869,12.76,11.569,22.848,24.358,22.967l78.154,0.729
	c8.805,0.072,17.492-2.861,24.437-8.291l70.593-55.185c5.187-4.057,12.678-3.377,17.052,1.547c2.225,2.505,3.338,5.727,3.132,9.071
	s-1.703,6.405-4.217,8.62l-50.855,44.787c-3.482,3.068-3.819,8.377-0.752,11.859s8.377,3.82,11.859,0.752l50.855-44.787
	c5.893-5.189,9.403-12.365,9.884-20.203c0.481-7.839-2.126-15.389-7.343-21.262C397.253,297.489,379.698,295.896,367.538,305.402z"
	/>
<path d="M320.379,402.59l-16.494,14.525c-7.525,6.628-17.192,10.324-27.219,10.41l-121.048,1.031
	c-8.314,0.071-16.274,3.197-22.413,8.805l-35.419,32.352c-3.427,3.129-3.667,8.445-0.537,11.871
	c1.657,1.815,3.928,2.736,6.207,2.736c2.023,0,4.053-0.726,5.664-2.198l35.419-32.352c3.074-2.808,7.059-4.374,11.223-4.41
	l121.047-1.031c14.067-0.119,27.627-5.305,38.184-14.603l16.494-14.525c3.482-3.066,3.819-8.377,0.752-11.859
	C329.172,399.861,323.862,399.524,320.379,402.59z"/>
<path d="M503.597,268.261h-64.459C434.731,171.054,354.277,93.325,256,93.325c-60.999,0-117.829,30.216-152.023,80.827
	c-2.598,3.846-1.586,9.069,2.259,11.667c3.845,2.597,9.069,1.588,11.667-2.259c31.063-45.98,82.687-73.43,138.097-73.43
	c89.008,0,161.931,70.193,166.323,158.131H89.674c0.972-19.747,5.38-38.897,13.141-57.039c1.825-4.266-0.153-9.205-4.421-11.03
	c-4.266-1.825-9.205,0.153-11.03,4.421c-8.659,20.24-13.52,41.615-14.506,63.649H8.403c-4.64,0-8.403,3.762-8.403,8.403
	c0,4.64,3.762,8.403,8.403,8.403h495.195c4.64,0,8.403-3.762,8.403-8.403C512,272.024,508.238,268.261,503.597,268.261z"/>
<path d="M256,85.12c15.836,0,28.72-12.884,28.72-28.72s-12.884-28.72-28.72-28.72s-28.719,12.884-28.719,28.72
	S240.164,85.12,256,85.12z M256,44.486c6.57,0,11.915,5.345,11.915,11.915S262.57,68.316,256,68.316s-11.914-5.345-11.914-11.915
	S249.43,44.486,256,44.486z"/>
<g>
</g>
<g>
</g>
<g>
</g>
<g>
</g>
<g>
</g>
<g>
</g>
<g>
</g>
<g>
</g>
<g>
</g>
<g>
</g>
<g>
</g>
<g>
</g>
<g>
</g>
<g>
</g>
<g>
</g>
</svg>
